<svg width="42" height="32" viewBox="0 0 42 32" fill="none" xmlns="http://www.w3.org/2000/svg">
<path d="M0 2.99217C1.10632 1.99526 2.21265 0.998347 3.31752 0C4.54709 1.32873 5.76506 2.66753 6.99463 3.99626C11.2039 3.99482 15.4117 3.9977 19.6209 3.99482C20.0429 3.99339 20.4634 4.01637 20.8853 4.0451C19.1149 5.12245 17.6258 6.6408 16.6151 8.4407C12.7452 8.45076 8.87379 8.45506 5.00383 8.4407C3.33492 6.625 1.66456 4.81218 0 2.99217Z" fill="#FFBE00"/>
<path d="M5.61841 9.99785C7.42072 9.96481 9.22158 9.99498 11.0239 9.98348C10.1467 10.8296 9.52462 11.9428 9.33612 13.1466C9.07513 14.6649 9.49272 16.2795 10.454 17.489C11.4864 18.8206 13.1466 19.6481 14.8445 19.661C16.5337 19.6639 18.223 19.6639 19.9122 19.661C21.5724 19.6509 23.1963 18.8594 24.2331 17.5781C25.8179 15.7136 25.9107 12.8334 24.4926 10.8497C25.1407 10.3929 25.9092 10.0826 26.7111 10.0567C27.5245 10.0323 28.3394 10.0539 29.1542 10.0481C30.0706 12.1411 30.2388 14.5443 29.6197 16.7421C29.0208 18.9068 27.6593 20.8518 25.828 22.1719C24.1258 23.413 22.0204 24.1011 19.9049 24.1069H14.8445C12.5289 24.0997 10.2278 23.268 8.44874 21.797C6.62759 20.3103 5.35452 18.1757 4.93838 15.8701C4.56719 13.9022 4.82818 11.838 5.61841 9.99785Z" fill="#FFBE00"/>
<path d="M12.8638 25.8823C13.8339 25.6424 14.9141 25.8909 15.6652 26.5488C16.4409 27.2039 16.8527 28.2482 16.7265 29.2508C16.6164 30.3267 15.8812 31.3079 14.8807 31.7374C13.8527 32.1956 12.5797 32.0448 11.6937 31.3509C10.8281 30.6974 10.3583 29.5755 10.5062 28.5067C10.6454 27.2599 11.6314 26.1667 12.8638 25.8823Z" fill="#FFBE00"/>
<path d="M24.5564 4.27471C26.1165 3.87681 27.7376 4.02333 29.3297 3.99604C30.9986 4.0262 32.7008 3.86532 34.3335 4.30057C36.7158 4.88665 38.8559 6.37196 40.2348 8.38302C41.4876 10.1843 42.1068 12.3994 41.985 14.5828C41.8661 17.1469 40.6916 19.6363 38.7965 21.3845C36.9318 23.1356 34.3755 24.1325 31.8062 24.1066C29.8328 24.0822 27.8579 24.1569 25.8874 24.0621C27.6593 22.989 29.1571 21.4721 30.1532 19.6651C31.19 19.6349 32.2484 19.7555 33.2634 19.4841C34.8439 19.0847 36.2199 17.97 36.9333 16.5163C37.6583 15.0755 37.7032 13.3187 37.0522 11.8435C36.2286 9.90137 34.2276 8.51517 32.0976 8.45053C30.304 8.43186 28.509 8.43473 26.7154 8.44909C24.1881 8.50081 21.8768 10.4458 21.394 12.8993C21.0634 14.3918 21.4114 15.9949 22.2799 17.2518C21.6289 17.7115 20.8575 18.0232 20.0513 18.049C19.2394 18.0691 18.4274 18.0476 17.6168 18.0562C16.5395 15.597 16.5047 12.7125 17.54 10.2346C18.742 7.28986 21.4317 4.99726 24.5564 4.27471Z" fill="#0F665A"/>
<path d="M32.5865 25.875C33.5218 25.6524 34.5541 25.8822 35.2965 26.4913C36.0737 27.1133 36.5159 28.1202 36.4376 29.1085C36.3753 30.2663 35.5865 31.3422 34.5005 31.7703C33.4565 32.2027 32.1834 32.0145 31.3193 31.292C30.4652 30.6082 30.0317 29.4576 30.2216 28.3874C30.4072 27.1794 31.3845 26.1465 32.5865 25.875Z" fill="#0F665A"/>
</svg>
