<svg width="150" height="73" viewBox="0 0 150 73" fill="none" xmlns="http://www.w3.org/2000/svg">
<path d="M45.9376 4.4136C47.4021 3.08153 48.8666 1.74945 50.3292 0.415459C51.9569 2.19092 53.5692 3.97982 55.1969 5.75528C60.769 5.75336 66.3391 5.7572 71.9112 5.75336C72.4697 5.75144 73.0264 5.78215 73.5849 5.82054C71.2413 7.2601 69.2701 9.28892 67.9322 11.694C62.8093 11.7074 57.6845 11.7131 52.5615 11.694C50.3523 9.26781 48.1411 6.84551 45.9376 4.4136Z" fill="#FFBE00"/>
<path d="M53.3742 13.7746C55.76 13.7304 58.144 13.7707 60.5298 13.7554C59.3685 14.8859 58.5451 16.3735 58.2956 17.9819C57.9501 20.0108 58.5029 22.1682 59.7755 23.7843C61.1421 25.5636 63.3398 26.6692 65.5875 26.6865C67.8236 26.6903 70.0597 26.6903 72.2958 26.6865C74.4936 26.6731 76.6433 25.6155 78.0157 23.9033C80.1136 21.4119 80.2365 17.5635 78.3593 14.9128C79.2173 14.3024 80.2346 13.8878 81.296 13.8533C82.3728 13.8206 83.4515 13.8494 84.5302 13.8418C85.7433 16.6383 85.9659 19.8495 85.1463 22.7862C84.3536 25.6788 82.5513 28.2777 80.1271 30.0416C77.8737 31.7 75.0867 32.6194 72.2862 32.6271H65.5875C62.5222 32.6175 59.476 31.5062 57.1209 29.5407C54.7101 27.5541 53.0249 24.7018 52.474 21.6212C51.9826 18.9916 52.3281 16.2334 53.3742 13.7746Z" fill="#FFBE00"/>
<path d="M62.967 34.9995C64.251 34.6789 65.681 35.011 66.6753 35.8901C67.7022 36.7653 68.2473 38.1607 68.0803 39.5005C67.9344 40.9381 66.9613 42.2491 65.6369 42.823C64.276 43.4353 62.5908 43.2338 61.418 42.3067C60.2721 41.4333 59.6502 39.9343 59.846 38.5062C60.0302 36.8402 61.3354 35.3795 62.967 34.9995Z" fill="#FFBE00"/>
<path d="M14.7919 48.4258C16.2584 48.017 18.0127 49.0477 18.0741 50.6351C18.2776 52.1744 16.792 53.5199 15.2891 53.3376C13.8936 53.3376 12.671 52.017 12.861 50.6159C12.9205 49.5602 13.767 48.6408 14.7919 48.4258Z" fill="#FFBE00"/>
<path d="M78.4407 6.12743C80.506 5.59575 82.6519 5.79153 84.7594 5.75506C86.9687 5.79537 89.2221 5.5804 91.3834 6.16198C94.537 6.9451 97.37 8.92978 99.1954 11.617C100.854 14.0239 101.673 16.9837 101.512 19.9012C101.355 23.3273 99.8 26.6537 97.2913 28.9896C94.823 31.3294 91.439 32.6615 88.0378 32.6269C85.4255 32.5943 82.8112 32.6941 80.2027 32.5674C82.5483 31.1336 84.531 29.1067 85.8497 26.6921C87.2221 26.6518 88.6232 26.813 89.9668 26.4502C92.059 25.9166 93.8805 24.4272 94.8249 22.4847C95.7846 20.5595 95.8441 18.2121 94.9823 16.2408C93.892 13.6458 91.2432 11.7935 88.4236 11.7072C86.0493 11.6822 83.6731 11.6861 81.2987 11.7053C77.9532 11.7744 74.8936 14.3732 74.2545 17.6516C73.8168 19.6459 74.2775 21.788 75.4272 23.4674C74.5654 24.0817 73.5443 24.4982 72.4771 24.5327C71.4022 24.5596 70.3273 24.5308 69.2544 24.5423C67.8282 21.2563 67.7822 17.4021 69.1526 14.0911C70.7438 10.1563 74.3044 7.0929 78.4407 6.12743Z" fill="#0F665A"/>
<path d="M89.0713 34.9898C90.3093 34.6923 91.6759 34.9994 92.6587 35.8132C93.6875 36.6443 94.2729 37.9898 94.1692 39.3104C94.0867 40.8574 93.0425 42.2951 91.6049 42.8671C90.2229 43.4448 88.5377 43.1934 87.3937 42.2279C86.2632 41.3143 85.6892 39.7768 85.9407 38.3469C86.1864 36.7326 87.4801 35.3526 89.0713 34.9898Z" fill="#0F665A"/>
<path d="M37.5273 49.6867C38.9458 49.6848 40.3642 49.6848 41.7846 49.6867C41.7846 53.9324 41.7827 58.1801 41.7846 62.4259C43.6579 60.0611 45.5332 57.6964 47.4008 55.3279C49.2473 55.3202 51.0957 55.324 52.9422 55.324C50.4796 58.1417 48.0054 60.9479 45.5428 63.7637C48.0285 66.5507 50.5141 69.3377 52.9978 72.1285C51.159 72.1381 49.3202 72.1189 47.4834 72.14C45.5659 69.7753 43.6887 67.3799 41.7846 65.0036C41.7808 67.3799 41.7846 69.7542 41.7846 72.1304H37.5273C37.5254 64.6486 37.5254 57.1667 37.5273 49.6867Z" fill="#0F665A"/>
<path d="M81.7779 49.6866C83.2136 49.6828 84.6494 49.6866 86.0851 49.6847C86.0851 57.1666 86.087 64.6485 86.0851 72.1304H81.7798C81.7798 71.3108 81.7722 70.4931 81.7856 69.6755C79.9295 72.4951 75.8719 73.1131 72.9735 71.6467C70.7221 70.5507 69.2345 68.2512 68.7854 65.8309C68.2652 63.0036 68.7182 59.8404 70.6318 57.6023C72.6088 55.2184 76.1713 54.4065 79.0159 55.5869C80.0965 56.0169 81.0581 56.7232 81.7856 57.633C81.7702 54.9842 81.7837 52.3354 81.7779 49.6866ZM76.0101 59.0016C74.6185 59.4296 73.5494 60.6331 73.1559 62.017C72.4994 64.2627 73.2403 67.0842 75.4361 68.1937C77.2059 69.1515 79.5955 68.5967 80.7971 66.994C82.2251 65.0439 82.1791 62.0323 80.5706 60.1974C79.4554 58.9536 77.5917 58.4833 76.0101 59.0016Z" fill="#0F665A"/>
<path d="M94.7233 51.3815C97.7138 50.3085 101.186 50.4525 104.011 51.9439C106.24 53.0975 107.923 55.1723 108.683 57.5543C107.054 57.5563 105.424 57.5563 103.796 57.5543C103.255 56.468 102.393 55.5198 101.265 55.0399C99.0075 54.0668 96.1379 54.4468 94.3567 56.1954C92.4085 58.0995 92.0265 61.1072 92.61 63.6638C93.0265 65.4604 94.1974 67.1246 95.8941 67.9096C97.6235 68.71 99.733 68.7388 101.451 67.8962C102.495 67.3894 103.28 66.4719 103.798 65.4489C105.428 65.4508 107.056 65.4431 108.687 65.4527C107.904 67.923 106.134 70.0728 103.787 71.1976C101.305 72.4183 98.376 72.6045 95.7118 71.9385C92.6542 71.1553 90.0342 68.8866 88.8364 65.9671C87.871 63.6408 87.7577 61.0016 88.3374 58.5639C89.1205 55.3144 91.5697 52.5178 94.7233 51.3815Z" fill="#0F665A"/>
<path d="M0.00125414 72.1305C0.00125414 65.0766 -0.00258576 58.0228 0.0031725 50.9689H4.25853C4.26045 56.8999 4.25853 62.829 4.25853 68.7581C6.58294 68.7619 8.90544 68.758 11.2279 68.76C11.2279 69.8828 11.2299 71.0057 11.2279 72.1305C7.48507 72.1305 3.7422 72.1305 0.00125414 72.1305Z" fill="#0F665A"/>
<path d="M141.51 51.1742C142.94 51.1723 144.372 51.1723 145.804 51.1742C145.804 52.5562 145.802 53.9401 145.804 55.324H149.558V58.8269H145.804C145.804 61.5391 145.802 64.2493 145.804 66.9614C145.775 67.5392 146.007 68.2225 146.616 68.4048C147.571 68.6659 148.579 68.495 149.558 68.5449V72.1285C147.577 72.0594 145.429 72.4298 143.623 71.4068C142.168 70.6141 141.546 68.8924 141.523 67.3165C141.489 64.4854 141.52 61.6562 141.508 58.8269C140.842 58.8269 140.18 58.825 139.518 58.8269C139.516 57.6599 139.518 56.491 139.518 55.324C140.18 55.324 140.844 55.3221 141.508 55.324C141.51 53.9401 141.506 52.5562 141.51 51.1742Z" fill="#0F665A"/>
<path d="M24.1683 57.3797C26.5849 54.3777 31.7174 54.299 34.2587 57.1705C35.4718 58.5102 35.9209 60.3644 35.9286 62.1321C35.9344 65.4643 35.9305 68.7964 35.9305 72.1285C34.5121 72.1304 33.0917 72.1304 31.6733 72.1304C31.6733 69.0536 31.6713 65.9787 31.6733 62.9038C31.6752 62.0227 31.5466 61.1091 31.0898 60.3394C29.7903 58.0937 25.9572 58.1513 24.7135 60.4239C24.2912 61.1724 24.1645 62.0515 24.1722 62.9018C24.176 65.9767 24.1741 69.0536 24.1741 72.1304H19.9168C19.9149 66.5276 19.9149 60.9268 19.9149 55.324H24.1741C24.1741 56.0092 24.1779 56.6944 24.1683 57.3797Z" fill="#0F665A"/>
<path d="M54.439 56.5525C56.3604 55.1877 58.848 54.8288 61.1417 55.1801C63.278 55.5064 65.3202 56.6926 66.4872 58.5371C67.7291 60.4297 68.0113 62.8002 67.7042 65.0056C63.6043 65.0056 59.5063 65.0017 55.4064 65.0075C55.5158 66.1706 55.9861 67.3549 56.9516 68.067C58.0648 68.9365 59.6368 69.0901 60.9478 68.6217C61.7923 68.3204 62.4085 67.614 62.8231 66.8424C64.3509 66.8405 65.8769 66.8386 67.4047 66.8424C66.6542 69.401 64.5045 71.5009 61.9037 72.1285C59.9075 72.6026 57.7366 72.4971 55.8479 71.6621C54.3296 71.0018 53.0398 69.8406 52.2394 68.3933C51.1319 66.4451 50.9112 64.1034 51.2413 61.9172C51.5657 59.8116 52.6713 57.7828 54.439 56.5525ZM56.9957 59.3183C56.0859 59.9805 55.6118 61.065 55.4371 62.1476C58.0994 62.1514 60.7616 62.1514 63.4239 62.1476C63.3739 61.3894 63.1858 60.6101 62.6887 60.0151C61.3605 58.3644 58.6848 58.063 56.9957 59.3183Z" fill="#0F665A"/>
<path d="M111.553 57.4565C113.927 54.7194 118.478 54.2127 121.349 56.4488C121.827 56.7981 122.224 57.2396 122.608 57.6907C122.599 56.9018 122.605 56.1129 122.603 55.324H126.887C126.887 60.9268 126.887 66.5277 126.885 72.1304H122.605C122.605 71.3224 122.597 70.5162 122.608 69.71C120.587 72.5316 116.395 73.1804 113.453 71.4874C111.242 70.259 109.854 67.8636 109.51 65.399C109.098 62.6312 109.643 59.5851 111.553 57.4565ZM116.896 58.9747C115.414 59.3932 114.278 60.6888 113.913 62.1648C113.316 64.4029 114.111 67.1764 116.305 68.2302C118.046 69.1265 120.355 68.5891 121.551 67.0478C122.489 65.8923 122.725 64.3184 122.551 62.875C122.413 61.5967 121.762 60.3548 120.702 59.6062C119.618 58.827 118.173 58.5928 116.896 58.9747Z" fill="#0F665A"/>
<path d="M132.854 57.898C133.935 56.136 135.939 55.0342 138.006 55.0745C138.008 56.5678 138.006 58.0631 138.008 59.5583C136.706 59.5487 135.278 59.4681 134.163 60.2589C133.134 60.9652 132.893 62.3126 132.864 63.4777C132.854 66.3626 132.864 69.2456 132.86 72.1285C131.44 72.1305 130.021 72.1305 128.603 72.1305C128.603 66.5277 128.601 60.9249 128.603 55.324C130.021 55.324 131.44 55.3221 132.86 55.324C132.858 56.182 132.864 57.0381 132.854 57.898Z" fill="#0F665A"/>
<path d="M13.304 55.3241H17.5613C17.5613 60.9268 17.5632 66.5277 17.5613 72.1305H13.304C13.3021 66.5277 13.304 60.9268 13.304 55.3241Z" fill="#0F665A"/>
</svg>
